 <svg  version="1.0" xmlns="http://www.w3.org/2000/svg"  width="21.000000pt" height="20.000000pt" viewBox="0 0 21.000000 20.000000"  preserveAspectRatio="xMidYMid meet">  <g transform="translate(0.000000,20.000000) scale(0.100000,-0.100000)" fill="#509ad3" stroke="none"> <path d="M51 186 c-90 -50 -50 -186 55 -186 55 0 104 47 104 101 0 11 -7 34 -16 51 l-16 32 -36 -58 -36 -58 -18 22 c-10 12 -22 20 -27 18 -5 -1 3 -18 18 -37 l28 -34 36 58 c36 58 36 58 46 32 31 -81 -80 -147 -144 -87 -65 61 6 172 91 140 13 -5 24 -6 24 -1 0 23 -72 28 -109 7z"/> </g> </svg> 