<?xml version="1.0" standalone="no"?>
<!DOCTYPE svg PUBLIC "-//W3C//DTD SVG 20010904//EN"
 "http://www.w3.org/TR/2001/REC-SVG-20010904/DTD/svg10.dtd">
<svg version="1.0" xmlns="http://www.w3.org/2000/svg"
 width="21.000000pt" height="20.000000pt" viewBox="0 0 21.000000 20.000000"
 preserveAspectRatio="xMidYMid meet">
<metadata>
Created by potrace 1.10, written by Peter Selinger 2001-2011
</metadata>
<g transform="translate(0.000000,20.000000) scale(0.100000,-0.100000)"
fill="#e27474" stroke="none">
<path d="M53 184 c-66 -33 -67 -136 -2 -169 96 -50 191 37 144 133 l-17 36
-36 -58 -35 -59 -19 22 c-9 13 -22 21 -27 19 -5 -1 3 -18 18 -37 l28 -34 36
58 c36 58 36 58 46 32 13 -34 1 -68 -36 -96 -77 -61 -181 52 -114 123 28 30
65 40 92 25 11 -6 23 -8 27 -5 21 22 -66 30 -105 10z"/>
</g>
</svg>
